<?xml version="1.0" encoding="UTF-8"?><svg id="Layer_1" xmlns="http://www.w3.org/2000/svg" viewBox="0 0 500 500">
<defs><style>.cls-1{fill:#a0a9d6;}.cls-2{fill:#192238;}.cls-3{fill:#f7f8fb;}</style></defs>
<circle class="cls-2" cx="250" cy="250" r="250"/>
<path class="cls-3" d="M171.58,341.42l-1.95-19.73c-10.74,13.28-28.91,23.63-55.27,23.63-50,0-86.72-41.41-86.72-97.46s36.72-97.85,86.72-97.85c26.37,0,44.53,10.55,55.27,23.63l1.95-19.73h59.57v187.5h-59.57ZM88.57,247.86c0,25.39,16.6,43.16,40.43,43.16s40.43-17.77,40.43-43.16-16.6-42.97-40.43-43.16c-23.83,0-40.43,17.77-40.43,43.16Z"/>
<path class="cls-1" d="M268.26,419.54V153.92h57.81l1.95,19.73c10.94-13.67,28.52-23.63,56.84-23.63,52.93,0,87.5,41.8,87.5,98.05s-34.57,97.27-87.5,97.27c-23.24,0-43.95-7.03-55.08-17.77v91.99h-61.52ZM329,247.67c0,25,16.99,42.58,40.04,42.58s41.41-17.58,41.41-42.58-17.77-42.58-41.41-42.58-40.04,17.38-40.04,42.58Z"/>
</svg>
